<?xml version="1.0" encoding="utf-8"?>
<!-- Generator: Adobe Illustrator 28.0.0, SVG Export Plug-In . SVG Version: 6.00 Build 0)  -->
<svg version="1.1" id="Layer_1" xmlns="http://www.w3.org/2000/svg" xmlns:xlink="http://www.w3.org/1999/xlink" x="0px" y="0px"
	 viewBox="0 0 720 720" style="enable-background:new 0 0 720 720;" xml:space="preserve">
<style type="text/css">
	.st0{fill:#FFE9CD;}
	.st1{fill:#C1D5D1;}
	.st2{fill:#ADC7C1;}
	.st3{fill:#D2ACA9;}
	.st4{fill:#DDBAB0;}
	.st5{fill:#EBDAD3;}
	.st6{fill:#E16A66;}
	.st7{fill:#E47A71;}
	.st8{fill:#E58D7F;}
	.st9{fill:#D1ABA8;}
	.st10{fill:#DCB9AE;}
	.st11{fill:#EAD9D2;}
	.st12{fill:#6C4D5F;}
</style>
<rect x="-9" y="-9" class="st0" width="738" height="738"/>
<circle class="st1" cx="343.77" cy="375.68" r="288.58"/>
<circle class="st2" cx="360" cy="360" r="288.58"/>
<g>
	<g>
		<path class="st3" d="M531.52,648.72c-97.06-123.82-256.4,63.66-375.45-17.53c-58.42-26.7-82.31-102.03-57.69-159.71
			c10.08-25.54,44.51-80.1,75.45-56.06c7.58,21.42-25.98,33.78-34.65,51.07c-55.15,80.76,14.07,153.58,99.61,156.22
			c93.76-7.36,199.15-90.77,287.74-22.84c24.74,21.06,39.5,58.04,21.3,89.86C521.51,722.91,539.74,660.47,531.52,648.72z"/>
	</g>
	<g>
		<path class="st4" d="M297.79,188.64c22.87-10.21,45.76,0.22,69.37,1.64c46.52-2.94,90.93,9.85,111.96,53.94
			c35.85,77.78,86.09,213.38-13.08,263.17c-92.86,36.77-230.68,40.77-297.42-42.48C70.88,337.7,155.67,215.87,297.79,188.64z"/>
	</g>
	<g>
		<path class="st5" d="M480.42,447.29c6.95-9.46,20.79-16.53,23.21,0.42c-0.46,20.08-15.61,36.33-29.39,49.34
			c-14.31,11.44-34.07,12.49-51.08,17.94c-43.97,10.13-67.91-37.39-31.32-65.44c12.06-7.17,22.76-21.71,36.99-22.97
			C446.99,431.8,471.38,426.71,480.42,447.29z"/>
	</g>
	<g>
		<path class="st3" d="M399.32,533.19c13.32,13.62-13.42,22.9-24.21,24.1c-16.64,0.06-32.72-4.01-49.17-5.72
			c-24.33-7.73-51.61-2.95-74.57-14.86c-8.08-3.65-13.85-13.48-9.18-22.3c8.69-20.01,53.48-22.65,73.39-23.15
			C333.23,495.24,420.97,503.55,399.32,533.19z"/>
		<path class="st3" d="M489.5,515.53c-27.97-2.86-19.37-10.71-8.36-28.41c3.93-11.35,15.25-7.61,20.04-17.2
			c5.05-6.69,11.77-3.74,17.82-0.86c2.35-0.14,4.62,0.07,6.51,1.73c20.78-9.73,9.27,19.44-0.87,25.35
			C515.67,506.17,503.23,514.17,489.5,515.53z"/>
	</g>
	<g>
		<path class="st6" d="M509,439.92c23.22-35.77,73.86,6.04,36.24,31.16c-9.02,4.62-20.52,7.1-29.6,1.42
			c-1.75-1.05-2.54-1.24-3.83,0.67c-13.87,22.26-49.98,16.17-58.11-7.99C441.44,431.46,490.06,415.23,509,439.92z"/>
	</g>
	<g>
		<path class="st7" d="M498.64,456.14c-13.25,1.79-28-3.81-33.6-16.69c-0.46-1.17-1.41-1.5-2.35-0.52
			c-14.86,16.06-43.09,6.1-46.71-14.8c-5.79-17.12,11.88-38.89,29.73-31.36c7.64,3.81,16.95,5.16,20.83,13.92
			c0.78,1.28,1.3,0.63,1.83,0.09c7.34-8.3,17.12-6.15,26.27-3.96c5.86-2.23,12.99,0.99,18.11-0.32c4.88-8.35,14.41-9.63,22.21-13.98
			c17.91-2.33,6-9.81,22.12-19.65c5.51-3.91,12.12-2.59,17.67,1.06c14.62,0.66,24.56,15.22,20.77,29.1
			c-2.25,11.86-13.18,20.81-25.03,22.04c-5.43,11.23-14.43,22.03-28.83,22.99c-6.22,1.3-12.99,0.33-18.54-2.76
			c-1.46-0.92-1.63-0.3-2.17,0.63C516.4,450.28,507.48,454.46,498.64,456.14z"/>
	</g>
	<g>
		<path class="st8" d="M444.65,399.84c-57.76,42.44-82.42-61.17-17.37-55.72c14.29,0.34,23.3,14.95,29.4,23.6
			c3.33-3.38,9.1-5.3,13.09-2.11c7.79,1.73,16.52,1.06,23.17,6.93c1.09,0.8,1.26,0.57,1.77-0.58c2.89-6.56,7.45-11.38,14.37-13.91
			c8.29-5.07,22.54,6.3,20.67-0.22c-0.82-44.8,70.94-38.63,62.59,5.87c-2.54,17.11-20.92,26.25-36.81,25.38
			c-2.25-0.76-2.25-0.76-3.3,2.07c-1.5,7.33-5.79,12.94-11.44,17.45c-10.53,7.92-27.02,8.79-37.88,0.96
			C488.23,431.08,449.1,429.8,444.65,399.84z"/>
	</g>
	<g>
		<path class="st9" d="M428.41,421.6c-1.39,41.12-65.74,43.56-64.52-0.48C366.38,371.84,429.42,370.04,428.41,421.6z"/>
		<path class="st9" d="M605.32,378.48c-0.65,34.28-44.27,46.41-53.51,13.21C550.1,354.05,601.46,328.73,605.32,378.48z"/>
	</g>
	<g>
		<path class="st10" d="M591.1,232.83c6.86,155.19-147.93,189.08-238.6,78.84C193.32,94.87,582.79-35.86,591.1,232.83z"/>
	</g>
	<g>
		<path class="st3" d="M325.89,242.65c-50.72-4.48-98.46-96.36-36.47-119.3c36.95-12.44,110.64,8.33,97.79,57.84
			c-6.5,16.24-22.89,25.57-32.03,40.29C347.75,230.18,338.56,243.51,325.89,242.65z"/>
		<path class="st3" d="M545.66,36.67c66.55-1.06,53.46,87.23,19.25,119.78c-26.53,13.32-44.14-20.88-62.42-34.52
			c-9.95-10.03-28.46-21.99-21.61-38.32C494.24,60.5,518.2,38.89,545.66,36.67z"/>
		<path class="st3" d="M498.34,359.59c-9.1,0.77-19.51-9.31-12.64-18.16c6.67-8.55,30.55-11.67,28.9,3.83
			C513.5,353.1,506.72,360.41,498.34,359.59z"/>
	</g>
	<g>
		<path class="st11" d="M289.32,191.08c-1.48-41.38,69.76-41.62,83.57-10.04c6.16,21.49-22.4,44.09-39.17,52.92
			C312.13,234.98,289.1,212.87,289.32,191.08z"/>
		<path class="st11" d="M576.27,108.12c-2.03,19.9-15.57,46.43-36.78,50.82c-16.14-6.61-37.58-18.65-41.26-37.07
			C508.61,95.06,575.86,55.24,576.27,108.12z"/>
	</g>
	<g>
		<path class="st12" d="M444.09,310.79c-0.63,25.87-38.82,11.29-43.78-4.39C393.72,267.07,442.44,282.91,444.09,310.79z"/>
		<path class="st12" d="M567.12,264.71c-1.26,12.17-14.34,23.96-25.96,27.52c-14.24,3.12-14.15-16.3-11.17-25.51
			C531.52,246.01,568.38,240.98,567.12,264.71z"/>
	</g>
	<g>
		<path class="st3" d="M359.82,394.76c-1.18,24.94-3.22,55.8-19.49,77.21c-9.92,8.81-22.16,31.54-34.47,33.11
			c-4.52-0.37-7.09-5.35-4.43-8.98c8.71-12.84,22.21-21.15,31.58-33.45c13.37-24.54,18.08-53.01,14.74-80.72
			c1.08-44.8-35.18-95.67-83.13-92.37c-16.29,2.65-33.53,4.28-47.85,13.05c-5.98,2.21-18.71,15.98-22.12,5.27
			c6.54-21.2,34.67-29.5,54.57-33.76c28.86-7.58,55.77,8.04,77.3,25.94C352.71,323.73,356.74,361,359.82,394.76z"/>
		<path class="st3" d="M355.77,318.38c6.33-18.64,23.12,9.56,29.18,16.15c8.31,9.28,18.56,16.75,28.65,23.83
			c1.69,0.8,0.68,3.32-1.13,2.52C390.34,354.15,362.56,342.63,355.77,318.38z"/>
	</g>
	<g>
		<path class="st11" d="M402.92,272.62c-40.51-6.36,41.94-45.22,29.08-12.22C423.31,266.17,413.6,271.9,402.92,272.62z"/>
		<path class="st11" d="M582.85,294.64c9.65-2.61,71.39,9.99,39.13,14.45c-23.54-7.29-48.55-7.13-71.58-3.55
			C552.52,293.72,573.84,296.36,582.85,294.64z"/>
		<path class="st11" d="M544.98,218.51c8.25,1.77,31.92,6.05,23.26,18.32C552.15,248.14,507.07,224.97,544.98,218.51z"/>
		<path class="st11" d="M366.99,386.67c-18.11-7.28,69.34-53.79,75.1-42.96C418.63,356.01,389.64,369.91,366.99,386.67z"/>
		<path class="st11" d="M452.93,354.76c17.12,6.84-21.91,14.76-27.38,20.18c-14.29,4.48-21.49,24.17-35.95,25.55
			C392.6,378.12,433.62,365.66,452.93,354.76z"/>
		<path class="st11" d="M417.38,416.91c-13.06-6,45.27-56.37,54.02-50.08C455.84,383.72,433.4,399.49,417.38,416.91z"/>
		<path class="st11" d="M565.21,316.35c14.54,0.77,46.97,2.39,50.31,15.87C604.3,327.57,515.23,320.52,565.21,316.35z"/>
		<path class="st11" d="M555.92,331.06c15.89,4.23,37.37,8.28,47.53,21.1C600.59,357.19,538.1,332.93,555.92,331.06z"/>
		<path class="st11" d="M421.84,291.81c6.03,0.1,10.22,9.42,4.38,12.86C415.07,312.53,407.17,292.81,421.84,291.81z"/>
		<path class="st11" d="M547.32,263.26c0.49,8.6-14.37,14.03-12.63,2.85C535.42,260.35,547,254.66,547.32,263.26z"/>
	</g>
</g>
</svg>
